<?xml version="1.0" standalone="no"?>
<!DOCTYPE svg PUBLIC "-//W3C//DTD SVG 20010904//EN"
 "http://www.w3.org/TR/2001/REC-SVG-20010904/DTD/svg10.dtd">
<svg version="1.0" xmlns="http://www.w3.org/2000/svg"
 width="512.000000pt" height="512.000000pt" viewBox="0 0 512.000000 512.000000"
 preserveAspectRatio="xMidYMid meet">
<metadata>
Created by potrace 1.14, written by Peter Selinger 2001-2017
</metadata>
<g transform="translate(0.000000,512.000000) scale(0.100000,-0.100000)"
fill="#000000" stroke="none">
<path d="M2516 4953 c-20 -5 -68 -30 -191 -100 -38 -22 -90 -51 -115 -65 -25
-14 -76 -43 -115 -65 -38 -22 -95 -54 -125 -70 -30 -17 -93 -52 -140 -78 -47
-26 -110 -61 -140 -78 -30 -17 -68 -38 -85 -47 -67 -38 -334 -189 -390 -220
-33 -18 -106 -59 -163 -92 -57 -32 -106 -58 -109 -58 -3 0 -17 -8 -31 -18 -15
-11 -56 -35 -92 -54 -96 -52 -405 -225 -480 -268 -71 -41 -135 -76 -220 -123
-73 -40 -78 -44 -102 -90 -22 -44 -21 -94 5 -143 19 -36 26 -42 97 -81 155
-84 497 -278 507 -287 9 -8 -64 -53 -285 -176 -268 -149 -299 -169 -319 -205
-27 -48 -29 -81 -7 -135 17 -43 36 -59 124 -107 136 -75 359 -198 400 -221 25
-14 57 -32 72 -39 29 -15 45 -33 30 -33 -5 0 -42 -18 -83 -41 -79 -44 -100
-55 -309 -171 -74 -41 -151 -84 -170 -95 -49 -27 -81 -87 -77 -139 4 -49 39
-108 72 -126 22 -12 221 -123 355 -199 30 -17 100 -56 155 -87 55 -30 116 -64
135 -75 19 -11 55 -31 80 -45 25 -13 71 -40 103 -58 32 -19 60 -34 63 -34 2 0
21 -11 42 -23 20 -13 67 -40 103 -60 37 -19 140 -77 230 -128 189 -106 159
-89 449 -251 124 -69 245 -137 270 -151 444 -250 457 -257 500 -257 23 0 60
11 91 28 52 28 70 38 229 127 41 23 95 53 120 67 25 14 252 141 505 283 253
142 690 386 970 543 626 350 603 336 626 386 40 90 6 167 -97 222 -33 17 -79
42 -104 56 -25 14 -117 65 -205 113 -88 48 -175 97 -194 108 l-33 20 33 17
c19 9 86 45 149 79 63 35 139 77 169 93 29 17 74 42 100 56 26 15 68 38 94 52
96 50 132 145 85 224 -13 22 -32 44 -43 50 -11 6 -22 13 -25 16 -3 3 -18 12
-35 21 -70 38 -155 85 -225 124 -77 43 -159 89 -242 134 -44 23 -61 41 -40 41
7 0 80 40 412 227 25 14 65 36 89 50 102 54 131 95 127 180 -4 74 -25 91 -296
241 -25 13 -58 32 -75 42 -16 10 -50 29 -75 42 -25 14 -119 67 -210 118 -91
51 -185 104 -210 118 -25 13 -58 32 -75 42 -16 10 -52 30 -80 45 -71 39 -180
100 -505 282 -157 88 -312 175 -345 193 -33 18 -76 42 -95 53 -19 11 -55 31
-79 45 -25 14 -67 38 -93 53 -27 16 -50 29 -52 29 -2 0 -46 24 -97 53 -222
125 -251 137 -313 120z"/>
</g>
</svg>
